<svg width="96" height="95" viewBox="0 0 96 95" fill="none" xmlns="http://www.w3.org/2000/svg">
<g id="Group 162968">
<path id="Rectangle 332" d="M0.905273 6.39947C0.905273 2.89426 3.74681 0.0527344 7.25202 0.0527344H40.1642C44.1999 0.0527344 47.2107 3.76985 46.3726 7.71756L37.335 50.2858C36.3811 54.779 40.3682 58.7661 44.8615 57.8122L87.4296 48.7746C91.3773 47.9365 95.0945 50.9473 95.0945 54.983V87.8952C95.0945 91.4004 92.2529 94.2419 88.7477 94.2419H47.9999H7.25201C3.7468 94.2419 0.905273 91.4004 0.905273 87.8952V47.1473V6.39947Z" fill="#E2DAEC"/>
<path id="Rectangle 333" d="M65.9153 2.04832C66.3974 0.843054 67.5648 0.0527344 68.8629 0.0527344H91.92C93.6733 0.0527344 95.0946 1.47406 95.0946 3.22735V26.2845C95.0946 27.5826 94.3043 28.7499 93.099 29.232L54.6705 44.6035C52.079 45.64 49.5073 43.0684 50.5439 40.4769L65.9153 2.04832Z" fill="url(#paint0_linear_339_1357)"/>
</g>
<defs>
<linearGradient id="paint0_linear_339_1357" x1="92.7899" y1="1.93678" x2="56.4915" y2="11.0808" gradientUnits="userSpaceOnUse">
<stop stop-color="#E9525F"/>
<stop offset="1" stop-color="#EF7D85"/>
</linearGradient>
</defs>
</svg>
