<svg width="199" height="182" viewBox="0 0 199 182" fill="none" xmlns="http://www.w3.org/2000/svg">
<g id="Welcome Dog" clip-path="url(#clip0_303_1545)">
<g id="Group">
<path id="Vector" d="M48.5969 149.638C31.8961 128.722 29.4778 117.824 30.6827 111.694C30.9355 110.409 32.1405 105.328 31.3905 105.049C30.7586 104.813 28.8879 108.059 27.7672 110.967C27.7672 110.967 25.7534 116.218 26.0736 122.381C26.4612 129.829 33.6235 144.658 47.3836 160.603C47.7964 156.951 48.1925 153.299 48.5969 149.638Z" fill="#E2DAEC" stroke="#14151A" stroke-width="2" stroke-miterlimit="10"/>
<path id="Vector_2" d="M133.281 42.5205C136.23 40.1533 140.418 37.5916 144.319 38.716C151.279 40.7113 149.695 52.2262 159.158 60.5284C163.961 64.7471 172.581 68.9827 179.17 66.066C189.223 61.6105 188.237 43.2814 188.144 41.4891C187.243 24.7494 175.075 14.5957 173.651 13.4459C170.542 10.9349 155.779 -0.994231 140.873 5.82846C130.18 10.7236 123.633 23.329 124.998 36.9829C127.762 38.8259 130.526 40.6775 133.281 42.5205Z" fill="#E2DAEC" stroke="#14151A" stroke-width="2" stroke-miterlimit="10"/>
<path id="Vector_3" d="M62.8878 49.9182C59.6268 47.999 55.1188 46.0714 51.4197 47.7369C44.8135 50.7129 48.0239 61.8727 39.8504 71.4515C35.6963 76.3128 27.7756 81.749 20.8408 79.8129C10.249 76.8539 8.61431 58.567 8.45421 56.7747C6.95434 40.0857 17.5461 28.2834 18.7848 26.9392C21.5065 24.0055 34.4071 10.0811 50.1389 14.6887C61.4216 17.9944 69.7046 29.5347 70.2945 43.2392C67.8256 45.4712 65.3567 47.6947 62.8878 49.9182Z" fill="#E2DAEC" stroke="#14151A" stroke-width="2" stroke-miterlimit="10"/>
<g id="Vector_4">
<path d="M72.4014 127.859C87.3243 117.722 109.738 123.133 123.498 133.363C143.519 148.243 144.126 172.482 144.252 177.36" fill="#E2DAEC"/>
<path d="M72.4014 127.859C87.3243 117.722 109.738 123.133 123.498 133.363C143.519 148.243 144.126 172.482 144.252 177.36" stroke="#0B0B0E" stroke-width="2" stroke-miterlimit="10"/>
</g>
<g id="Vector_5">
<path d="M144.117 143.306C151.861 137.371 170.07 142.595 175.572 153.755C179.617 161.964 175.775 171.315 173.87 175.931" fill="#E2DAEC"/>
<path d="M144.117 143.306C151.861 137.371 170.07 142.595 175.572 153.755C179.617 161.964 175.775 171.315 173.87 175.931" stroke="#0B0B0E" stroke-width="2" stroke-miterlimit="10"/>
</g>
<g id="Vector_6">
<path d="M61.8513 144.523C54.1076 138.588 35.8985 143.813 30.3961 154.972C26.3515 163.182 30.1939 172.532 32.0982 177.148" fill="#E2DAEC"/>
<path d="M61.8513 144.523C54.1076 138.588 35.8985 143.813 30.3961 154.972C26.3515 163.182 30.1939 172.532 32.0982 177.148" stroke="#0B0B0E" stroke-width="2" stroke-miterlimit="10"/>
</g>
<g id="Vector_7">
<path d="M73.96 163.385C84.7877 144.599 115.072 141.319 128.587 153.873C137.755 162.395 138.278 177.343 138.421 181.325" fill="#E2DAEC"/>
<path d="M73.96 163.385C84.7877 144.599 115.072 141.319 128.587 153.873C137.755 162.395 138.278 177.343 138.421 181.325" stroke="#0B0B0E" stroke-width="2" stroke-miterlimit="10"/>
</g>
<g id="Vector_8">
<path d="M157.852 175.965C166.615 115.55 153.95 61.7544 133.281 42.5206C130.315 39.7645 124.147 34.024 114.633 31.699C103.174 28.8921 91.4948 32.1725 89.5736 32.7389C88.7057 32.9925 88.0485 33.2123 87.6187 33.3561C71.4319 38.6823 62.5928 50.3156 58.6324 55.7264C46.5661 72.2124 44.9988 90.1442 43.5832 108.008C42.5889 120.597 43.3304 129.381 44.7123 144.869" fill="#E2DAEC"/>
<path d="M157.852 175.965C166.615 115.55 153.95 61.7544 133.281 42.5206C130.315 39.7645 124.147 34.024 114.633 31.699C103.174 28.8921 91.4948 32.1725 89.5736 32.7389C88.7057 32.9925 88.0485 33.2123 87.6187 33.3561C71.4319 38.6823 62.5928 50.3156 58.6324 55.7264C46.5661 72.2124 44.9988 90.1442 43.5832 108.008C42.5889 120.597 43.3304 129.381 44.7123 144.869" stroke="#14151A" stroke-width="2" stroke-miterlimit="10"/>
</g>
<path id="Vector_9" d="M110.783 88.0139C113.086 88.0139 114.954 86.1402 114.954 83.829C114.954 81.5177 113.086 79.644 110.783 79.644C108.479 79.644 106.612 81.5177 106.612 83.829C106.612 86.1402 108.479 88.0139 110.783 88.0139Z" fill="#14151A" stroke="#E2DAEC" stroke-miterlimit="10"/>
<path id="Vector_10" d="M100.587 105.041C110.299 105.041 118.173 102.058 118.173 98.3789C118.173 94.6995 110.299 91.7168 100.587 91.7168C90.8748 91.7168 83.0015 94.6995 83.0015 98.3789C83.0015 102.058 90.8748 105.041 100.587 105.041Z" fill="#14151A" stroke="#E2DAEC" stroke-miterlimit="10"/>
<path id="Vector_11" d="M99.854 104.204C100.654 105.168 104.337 109.403 110.488 110.012C119.437 110.891 125.04 103.249 125.268 102.927" stroke="#14151A" stroke-width="2" stroke-miterlimit="10"/>
<path id="Vector_12" d="M99.5 104.204C98.6995 105.168 95.0172 109.403 88.8661 110.012C79.9174 110.891 74.3139 103.249 74.0864 102.927" stroke="#14151A" stroke-width="2" stroke-miterlimit="10"/>
<path id="Vector_13" d="M12.558 71.4682C13.8725 70.9018 22.6189 66.9705 25.29 57.5946C27.8685 48.5484 23.7312 38.1833 14.8246 32.3413C13.5691 34.3535 12.3136 36.3741 11.0581 38.3862C9.31388 42.5458 5.80856 52.598 9.20434 63.8762C10.0891 66.8521 11.3109 69.38 12.558 71.4682Z" fill="#14151A"/>
<path id="Vector_14" d="M139.736 49.9941C138.901 51.8964 135.994 59.0995 138.699 67.5455C142.398 79.0941 153.42 83.0339 154.667 83.4566C153.386 78.4432 151.507 72.5758 148.684 66.235C145.819 59.7759 142.651 54.3566 139.736 49.9941Z" fill="#14151A"/>
<path id="Vector_15" d="M81.8364 24.3102C82.2577 22.4587 85.8557 5.89651 80.0837 2.70075C79.081 2.14276 77.1767 1.6524 75.7526 2.48939C73.8314 3.61382 73.1321 6.9364 74.2106 10.8339C73.4186 8.0101 71.5058 6.04869 69.5509 5.98105C66.9135 5.8796 64.6805 9.2529 64.5457 11.6539C64.3014 16.2024 71.3457 21.0721 81.8364 24.3102Z" fill="#E2DAEC" stroke="#14151A" stroke-width="2" stroke-miterlimit="10"/>
<path id="Vector_16" d="M107.632 41.633C110.016 40.8383 131.25 33.5759 130.905 24.7918C130.846 23.2616 130.096 20.7591 128.166 19.7107C125.571 18.2904 121.333 19.7699 117.65 23.6843C120.305 20.8352 121.215 17.3181 119.951 15.0439C118.249 11.9665 112.906 11.7383 110.092 13.2347C104.767 16.0669 104.101 27.4465 107.632 41.633Z" fill="#E2DAEC" stroke="#14151A" stroke-width="2" stroke-miterlimit="10"/>
<path id="Vector_17" d="M106.612 72.7535C107.589 72.3984 110.808 71.367 114.6 72.6267C119.024 74.0978 121.046 77.6486 121.476 78.4518" stroke="#14151A" stroke-width="2" stroke-miterlimit="10"/>
<path id="Vector_18" d="M90.0289 88.0139C92.3325 88.0139 94.1999 86.1402 94.1999 83.829C94.1999 81.5177 92.3325 79.644 90.0289 79.644C87.7253 79.644 85.8579 81.5177 85.8579 83.829C85.8579 86.1402 87.7253 88.0139 90.0289 88.0139Z" fill="#14151A" stroke="#E2DAEC" stroke-miterlimit="10"/>
<path id="Vector_19" d="M94.1998 72.7535C93.2224 72.3984 90.0036 71.367 86.2118 72.6267C81.788 74.0978 79.7657 77.6486 79.3359 78.4518" stroke="#14151A" stroke-width="2" stroke-miterlimit="10"/>
<path id="Vector_20" d="M198.5 125.35H0.5V180.642H198.5V125.35Z" fill="#0B0B0E"/>
<g id="Group_2">
<g id="Vector_21">
<path d="M130.93 125.983C131.14 125.188 133.592 116.463 142.415 113.259C142.979 113.056 150.908 110.317 158.189 114.907C162.317 117.511 164.079 121.104 165.477 123.953C167.272 127.614 170.466 136.187 167.137 138.935C165.764 140.076 163.59 139.949 162.157 139.264C158.88 137.7 157.236 132.104 159.503 125.611" fill="#E2DAEC"/>
<path d="M130.93 125.983C131.14 125.188 133.592 116.463 142.415 113.259C142.979 113.056 150.908 110.317 158.189 114.907C162.317 117.511 164.079 121.104 165.477 123.953C167.272 127.614 170.466 136.187 167.137 138.935C165.764 140.076 163.59 139.949 162.157 139.264C158.88 137.7 157.236 132.104 159.503 125.611" stroke="#14151A" stroke-width="2" stroke-miterlimit="10"/>
</g>
<g id="Vector_22">
<path d="M158.846 123.962C162.958 130.759 163.126 136.889 160.506 138.943C159.141 140.017 157.009 139.983 155.526 139.273C152.248 137.709 150.605 132.112 152.872 125.619" fill="#E2DAEC"/>
<path d="M158.846 123.962C162.958 130.759 163.126 136.889 160.506 138.943C159.141 140.017 157.009 139.983 155.526 139.273C152.248 137.709 150.605 132.112 152.872 125.619" stroke="#14151A" stroke-width="2" stroke-miterlimit="10"/>
</g>
<g id="Vector_23">
<path d="M152.012 123.962C156.124 130.759 156.292 136.889 153.672 138.943C152.307 140.017 150.175 139.983 148.692 139.273C145.414 137.709 143.771 132.112 146.038 125.619" fill="#E2DAEC"/>
<path d="M152.012 123.962C156.124 130.759 156.292 136.889 153.672 138.943C152.307 140.017 150.175 139.983 148.692 139.273C145.414 137.709 143.771 132.112 146.038 125.619" stroke="#14151A" stroke-width="2" stroke-miterlimit="10"/>
</g>
</g>
<g id="Group_3">
<g id="Vector_24">
<path d="M73.7577 125.983C73.547 125.188 71.095 116.463 62.2727 113.259C61.7082 113.056 53.7791 110.317 46.4988 114.907C42.3699 117.511 40.6088 121.104 39.2101 123.953C37.4153 127.614 34.2217 136.187 37.5501 138.935C38.9236 140.076 41.0976 139.949 42.53 139.264C45.8078 137.7 47.4509 132.104 45.1843 125.611" fill="#E2DAEC"/>
<path d="M73.7577 125.983C73.547 125.188 71.095 116.463 62.2727 113.259C61.7082 113.056 53.7791 110.317 46.4988 114.907C42.3699 117.511 40.6088 121.104 39.2101 123.953C37.4153 127.614 34.2217 136.187 37.5501 138.935C38.9236 140.076 41.0976 139.949 42.53 139.264C45.8078 137.7 47.4509 132.104 45.1843 125.611" stroke="#14151A" stroke-width="2" stroke-miterlimit="10"/>
</g>
<g id="Vector_25">
<path d="M45.8333 123.962C41.7213 130.759 41.5527 136.889 44.1733 138.943C45.5383 140.017 47.6702 139.983 49.1532 139.273C52.431 137.709 54.0741 132.112 51.8075 125.619" fill="#E2DAEC"/>
<path d="M45.8333 123.962C41.7213 130.759 41.5527 136.889 44.1733 138.943C45.5383 140.017 47.6702 139.983 49.1532 139.273C52.431 137.709 54.0741 132.112 51.8075 125.619" stroke="#14151A" stroke-width="2" stroke-miterlimit="10"/>
</g>
<g id="Vector_26">
<path d="M52.6668 123.962C48.5548 130.759 48.3862 136.889 51.0068 138.943C52.3718 140.017 54.5037 139.983 55.9867 139.273C59.2645 137.709 60.9076 132.112 58.641 125.619" fill="#E2DAEC"/>
<path d="M52.6668 123.962C48.5548 130.759 48.3862 136.889 51.0068 138.943C52.3718 140.017 54.5037 139.983 55.9867 139.273C59.2645 137.709 60.9076 132.112 58.641 125.619" stroke="#14151A" stroke-width="2" stroke-miterlimit="10"/>
</g>
</g>
</g>
</g>
<defs>
<clipPath id="clip0_303_1545">
<rect width="198" height="181" fill="white" transform="translate(0.5 0.350098)"/>
</clipPath>
</defs>
</svg>
